<mxfile host="app.diagrams.net" modified="2023-11-01T11:50:51.554Z" agent="Mozilla/5.0 (X11; Linux x86_64) AppleWebKit/537.36 (KHTML, like Gecko) Chrome/118.0.0.0 Safari/537.36" etag="Pg6xumyB09hm07UqlzpK" version="22.0.8" type="device">
  <diagram name="Page-1" id="YKXosOOClyf2uKz4kZc7">
    <mxGraphModel dx="2009" dy="911" grid="1" gridSize="10" guides="1" tooltips="1" connect="1" arrows="1" fold="1" page="1" pageScale="1" pageWidth="1169" pageHeight="827" math="0" shadow="0">
      <root>
        <mxCell id="0" />
        <mxCell id="1" parent="0" />
        <mxCell id="xdKE0fxUzMoHAe-ZSNXu-1" value="Начало" style="html=1;shape=stencil(xVVNb4MwDP01HJmAaFV7nFh37GWTdnapgaghQU7Wj3+/0IAGAzqayyQO+D3yXuzYJGCpLqHGIIkkVBiw1yBJPpAqLsEosoFlSgevIheeXbhZuxB0jZlx2AmIw16gY7QhdcQzP5hWgcsSiZuGZdsgerHfNA9LMyWlFeFK6gHT460YcGnXRhcnFj09O5trG7uotg4VGqQB+pPczgFB8ubtFC9zevdwGmbU+f7l9Pm4U+zntPWpXvzbLF5YwZ1HYhN2683CA/Oy69Qfz86rmCO7xdnN2LHUInMDyNI9ZMeC1Jc8TG6yhma4R0RHV+qEs+19L/1OQHDZE+j+OY8oAGX2hVoF1q6h6zC+hHDhOiRloKnCQF8AFRhanTAXUAwofUase3B79NPbXXlkHHko/GPGHiecCaXxzhhYfNRkN3SmM1maK8I7LZtzIdzVNDcNI4Eb6i7KG/AN);whiteSpace=wrap;" vertex="1" parent="1">
          <mxGeometry x="150" y="190" width="100" height="60" as="geometry" />
        </mxCell>
        <mxCell id="xdKE0fxUzMoHAe-ZSNXu-2" style="edgeStyle=orthogonalEdgeStyle;rounded=0;orthogonalLoop=1;jettySize=auto;html=1;exitX=1;exitY=0.5;exitDx=0;exitDy=0;exitPerimeter=0;entryX=0.5;entryY=0;entryDx=0;entryDy=0;" edge="1" parent="1" source="xdKE0fxUzMoHAe-ZSNXu-3" target="xdKE0fxUzMoHAe-ZSNXu-9">
          <mxGeometry relative="1" as="geometry" />
        </mxCell>
        <mxCell id="xdKE0fxUzMoHAe-ZSNXu-3" value="L1 = 0" style="html=1;shape=mxgraph.flowchart.decision;whiteSpace=wrap;" vertex="1" parent="1">
          <mxGeometry x="120" y="280" width="160" height="60" as="geometry" />
        </mxCell>
        <mxCell id="xdKE0fxUzMoHAe-ZSNXu-4" style="edgeStyle=orthogonalEdgeStyle;rounded=0;orthogonalLoop=1;jettySize=auto;html=1;exitX=1;exitY=0.5;exitDx=0;exitDy=0;exitPerimeter=0;entryX=0.5;entryY=0;entryDx=0;entryDy=0;" edge="1" parent="1" source="xdKE0fxUzMoHAe-ZSNXu-6" target="xdKE0fxUzMoHAe-ZSNXu-11">
          <mxGeometry relative="1" as="geometry" />
        </mxCell>
        <mxCell id="xdKE0fxUzMoHAe-ZSNXu-6" value="L2 = 0" style="html=1;shape=mxgraph.flowchart.decision;whiteSpace=wrap;" vertex="1" parent="1">
          <mxGeometry x="-48" y="340" width="158" height="60" as="geometry" />
        </mxCell>
        <mxCell id="xdKE0fxUzMoHAe-ZSNXu-7" style="edgeStyle=orthogonalEdgeStyle;rounded=0;orthogonalLoop=1;jettySize=auto;html=1;exitX=0;exitY=0.5;exitDx=0;exitDy=0;exitPerimeter=0;entryX=0.5;entryY=0;entryDx=0;entryDy=0;entryPerimeter=0;" edge="1" parent="1" source="xdKE0fxUzMoHAe-ZSNXu-3" target="xdKE0fxUzMoHAe-ZSNXu-6">
          <mxGeometry relative="1" as="geometry" />
        </mxCell>
        <mxCell id="xdKE0fxUzMoHAe-ZSNXu-8" style="edgeStyle=orthogonalEdgeStyle;rounded=0;orthogonalLoop=1;jettySize=auto;html=1;exitX=0.5;exitY=1;exitDx=0;exitDy=0;exitPerimeter=0;entryX=0.5;entryY=0;entryDx=0;entryDy=0;entryPerimeter=0;" edge="1" parent="1" source="xdKE0fxUzMoHAe-ZSNXu-1" target="xdKE0fxUzMoHAe-ZSNXu-3">
          <mxGeometry relative="1" as="geometry" />
        </mxCell>
        <mxCell id="xdKE0fxUzMoHAe-ZSNXu-9" value="Вернуть L2" style="rounded=1;whiteSpace=wrap;html=1;absoluteArcSize=1;arcSize=0;" vertex="1" parent="1">
          <mxGeometry x="300" y="920" width="160" height="60" as="geometry" />
        </mxCell>
        <mxCell id="xdKE0fxUzMoHAe-ZSNXu-10" style="edgeStyle=orthogonalEdgeStyle;rounded=0;orthogonalLoop=1;jettySize=auto;html=1;exitX=0.5;exitY=1;exitDx=0;exitDy=0;entryX=0.5;entryY=1;entryDx=0;entryDy=0;endArrow=none;endFill=0;" edge="1" parent="1" source="xdKE0fxUzMoHAe-ZSNXu-11" target="xdKE0fxUzMoHAe-ZSNXu-9">
          <mxGeometry relative="1" as="geometry">
            <Array as="points">
              <mxPoint x="200" y="1010" />
              <mxPoint x="380" y="1010" />
            </Array>
          </mxGeometry>
        </mxCell>
        <mxCell id="xdKE0fxUzMoHAe-ZSNXu-11" value="Вернуть L1" style="rounded=1;whiteSpace=wrap;html=1;absoluteArcSize=1;arcSize=0;" vertex="1" parent="1">
          <mxGeometry x="120" y="920" width="160" height="60" as="geometry" />
        </mxCell>
        <mxCell id="xdKE0fxUzMoHAe-ZSNXu-17" style="edgeStyle=orthogonalEdgeStyle;rounded=0;orthogonalLoop=1;jettySize=auto;html=1;exitX=0;exitY=0.5;exitDx=0;exitDy=0;exitPerimeter=0;entryX=0.5;entryY=0;entryDx=0;entryDy=0;" edge="1" parent="1" source="xdKE0fxUzMoHAe-ZSNXu-19" target="xdKE0fxUzMoHAe-ZSNXu-21">
          <mxGeometry relative="1" as="geometry" />
        </mxCell>
        <mxCell id="xdKE0fxUzMoHAe-ZSNXu-18" style="edgeStyle=orthogonalEdgeStyle;rounded=0;orthogonalLoop=1;jettySize=auto;html=1;exitX=1;exitY=0.5;exitDx=0;exitDy=0;exitPerimeter=0;entryX=0.5;entryY=0;entryDx=0;entryDy=0;" edge="1" parent="1" source="xdKE0fxUzMoHAe-ZSNXu-19" target="xdKE0fxUzMoHAe-ZSNXu-22">
          <mxGeometry relative="1" as="geometry" />
        </mxCell>
        <mxCell id="xdKE0fxUzMoHAe-ZSNXu-19" value="S1[i - 1] = S2[j - 1]" style="html=1;shape=mxgraph.flowchart.decision;whiteSpace=wrap;" vertex="1" parent="1">
          <mxGeometry x="-218" y="530" width="160" height="60" as="geometry" />
        </mxCell>
        <mxCell id="xdKE0fxUzMoHAe-ZSNXu-20" style="edgeStyle=orthogonalEdgeStyle;rounded=0;orthogonalLoop=1;jettySize=auto;html=1;exitX=0.5;exitY=1;exitDx=0;exitDy=0;entryX=0.5;entryY=1;entryDx=0;entryDy=0;endArrow=none;endFill=0;" edge="1" parent="1" source="xdKE0fxUzMoHAe-ZSNXu-21" target="xdKE0fxUzMoHAe-ZSNXu-22">
          <mxGeometry relative="1" as="geometry">
            <Array as="points">
              <mxPoint x="-320" y="680" />
              <mxPoint x="40" y="680" />
            </Array>
          </mxGeometry>
        </mxCell>
        <mxCell id="xdKE0fxUzMoHAe-ZSNXu-21" value="R = R + 1" style="rounded=1;whiteSpace=wrap;html=1;absoluteArcSize=1;arcSize=0;" vertex="1" parent="1">
          <mxGeometry x="-400" y="590" width="160" height="60" as="geometry" />
        </mxCell>
        <mxCell id="xdKE0fxUzMoHAe-ZSNXu-22" value="R = R + 0" style="rounded=1;whiteSpace=wrap;html=1;absoluteArcSize=1;arcSize=0;" vertex="1" parent="1">
          <mxGeometry x="-40" y="590" width="160" height="60" as="geometry" />
        </mxCell>
        <mxCell id="xdKE0fxUzMoHAe-ZSNXu-25" style="edgeStyle=orthogonalEdgeStyle;rounded=0;orthogonalLoop=1;jettySize=auto;html=1;exitX=0.5;exitY=0;exitDx=0;exitDy=0;exitPerimeter=0;endArrow=none;endFill=0;startArrow=classic;startFill=1;" edge="1" parent="1" source="xdKE0fxUzMoHAe-ZSNXu-27">
          <mxGeometry relative="1" as="geometry">
            <mxPoint x="79.86956521739148" y="1070" as="targetPoint" />
          </mxGeometry>
        </mxCell>
        <mxCell id="xdKE0fxUzMoHAe-ZSNXu-26" style="edgeStyle=orthogonalEdgeStyle;rounded=0;orthogonalLoop=1;jettySize=auto;html=1;exitX=0.5;exitY=0;exitDx=0;exitDy=0;exitPerimeter=0;startArrow=classic;startFill=1;endArrow=none;endFill=0;" edge="1" parent="1" source="xdKE0fxUzMoHAe-ZSNXu-27">
          <mxGeometry relative="1" as="geometry">
            <mxPoint x="80.16666666666674" y="1040" as="targetPoint" />
          </mxGeometry>
        </mxCell>
        <mxCell id="xdKE0fxUzMoHAe-ZSNXu-27" value="Конец" style="html=1;shape=stencil(xVVNb4MwDP01HJmAaFV7nFh37GWTdnapgaghQU7Wj3+/0IAGAzqayyQO+D3yXuzYJGCpLqHGIIkkVBiw1yBJPpAqLsEosoFlSgevIheeXbhZuxB0jZlx2AmIw16gY7QhdcQzP5hWgcsSiZuGZdsgerHfNA9LMyWlFeFK6gHT460YcGnXRhcnFj09O5trG7uotg4VGqQB+pPczgFB8ubtFC9zevdwGmbU+f7l9Pm4U+zntPWpXvzbLF5YwZ1HYhN2683CA/Oy69Qfz86rmCO7xdnN2LHUInMDyNI9ZMeC1Jc8TG6yhma4R0RHV+qEs+19L/1OQHDZE+j+OY8oAGX2hVoF1q6h6zC+hHDhOiRloKnCQF8AFRhanTAXUAwofUase3B79NPbXXlkHHko/GPGHiecCaXxzhhYfNRkN3SmM1maK8I7LZtzIdzVNDcNI4Eb6i7KG/AN);whiteSpace=wrap;" vertex="1" parent="1">
          <mxGeometry x="30" y="1070" width="100" height="60" as="geometry" />
        </mxCell>
        <mxCell id="xdKE0fxUzMoHAe-ZSNXu-29" style="edgeStyle=orthogonalEdgeStyle;rounded=0;orthogonalLoop=1;jettySize=auto;html=1;exitX=0.5;exitY=0;exitDx=0;exitDy=0;exitPerimeter=0;entryX=0.5;entryY=0;entryDx=0;entryDy=0;" edge="1" parent="1" target="xdKE0fxUzMoHAe-ZSNXu-32">
          <mxGeometry relative="1" as="geometry">
            <mxPoint x="-138" y="890" as="sourcePoint" />
          </mxGeometry>
        </mxCell>
        <mxCell id="xdKE0fxUzMoHAe-ZSNXu-31" style="edgeStyle=orthogonalEdgeStyle;rounded=0;orthogonalLoop=1;jettySize=auto;html=1;exitX=0.5;exitY=1;exitDx=0;exitDy=0;endArrow=none;endFill=0;" edge="1" parent="1" source="xdKE0fxUzMoHAe-ZSNXu-32">
          <mxGeometry relative="1" as="geometry">
            <mxPoint x="290" y="1010" as="targetPoint" />
            <Array as="points">
              <mxPoint x="-138" y="1040" />
              <mxPoint x="290" y="1040" />
            </Array>
          </mxGeometry>
        </mxCell>
        <mxCell id="xdKE0fxUzMoHAe-ZSNXu-32" value="Вернуть min(I, D, R, T)" style="rounded=1;whiteSpace=wrap;html=1;absoluteArcSize=1;arcSize=0;" vertex="1" parent="1">
          <mxGeometry x="-218" y="920" width="160" height="60" as="geometry" />
        </mxCell>
        <mxCell id="xdKE0fxUzMoHAe-ZSNXu-35" style="edgeStyle=orthogonalEdgeStyle;rounded=0;orthogonalLoop=1;jettySize=auto;html=1;exitX=0.5;exitY=1;exitDx=0;exitDy=0;entryX=0.5;entryY=0;entryDx=0;entryDy=0;entryPerimeter=0;" edge="1" parent="1" target="xdKE0fxUzMoHAe-ZSNXu-19">
          <mxGeometry relative="1" as="geometry">
            <mxPoint x="-138" y="500" as="sourcePoint" />
          </mxGeometry>
        </mxCell>
        <mxCell id="xdKE0fxUzMoHAe-ZSNXu-38" style="edgeStyle=orthogonalEdgeStyle;rounded=0;orthogonalLoop=1;jettySize=auto;html=1;exitX=0;exitY=0.5;exitDx=0;exitDy=0;exitPerimeter=0;entryX=0.5;entryY=0;entryDx=0;entryDy=0;" edge="1" parent="1" source="xdKE0fxUzMoHAe-ZSNXu-41" target="xdKE0fxUzMoHAe-ZSNXu-43">
          <mxGeometry relative="1" as="geometry" />
        </mxCell>
        <mxCell id="xdKE0fxUzMoHAe-ZSNXu-40" style="edgeStyle=orthogonalEdgeStyle;rounded=0;orthogonalLoop=1;jettySize=auto;html=1;exitX=0.5;exitY=0;exitDx=0;exitDy=0;exitPerimeter=0;startArrow=classic;startFill=1;endArrow=none;endFill=0;" edge="1" parent="1" source="xdKE0fxUzMoHAe-ZSNXu-41">
          <mxGeometry relative="1" as="geometry">
            <mxPoint x="-138" y="680" as="targetPoint" />
          </mxGeometry>
        </mxCell>
        <mxCell id="xdKE0fxUzMoHAe-ZSNXu-51" style="edgeStyle=orthogonalEdgeStyle;rounded=0;orthogonalLoop=1;jettySize=auto;html=1;exitX=1;exitY=0.5;exitDx=0;exitDy=0;exitPerimeter=0;entryX=0.5;entryY=0;entryDx=0;entryDy=0;" edge="1" parent="1" source="xdKE0fxUzMoHAe-ZSNXu-41" target="xdKE0fxUzMoHAe-ZSNXu-50">
          <mxGeometry relative="1" as="geometry" />
        </mxCell>
        <mxCell id="xdKE0fxUzMoHAe-ZSNXu-41" value="i &amp;gt;= 2 и j &amp;gt;= 2&lt;br&gt;и S1[i] = S2[j - 1]&lt;br&gt;и S1[i - 1] = S2[j]" style="html=1;shape=mxgraph.flowchart.decision;whiteSpace=wrap;" vertex="1" parent="1">
          <mxGeometry x="-218" y="710" width="160" height="110" as="geometry" />
        </mxCell>
        <mxCell id="xdKE0fxUzMoHAe-ZSNXu-42" style="edgeStyle=orthogonalEdgeStyle;rounded=0;orthogonalLoop=1;jettySize=auto;html=1;exitX=0.5;exitY=1;exitDx=0;exitDy=0;entryX=0.5;entryY=1;entryDx=0;entryDy=0;endArrow=none;endFill=0;" edge="1" parent="1" source="xdKE0fxUzMoHAe-ZSNXu-43">
          <mxGeometry relative="1" as="geometry">
            <Array as="points">
              <mxPoint x="-320" y="890" />
              <mxPoint x="40" y="890" />
            </Array>
            <mxPoint x="40" y="859.9999999999998" as="targetPoint" />
          </mxGeometry>
        </mxCell>
        <mxCell id="xdKE0fxUzMoHAe-ZSNXu-43" value="T = +oo" style="rounded=1;whiteSpace=wrap;html=1;absoluteArcSize=1;arcSize=0;" vertex="1" parent="1">
          <mxGeometry x="-400" y="800" width="160" height="60" as="geometry" />
        </mxCell>
        <mxCell id="xdKE0fxUzMoHAe-ZSNXu-45" style="edgeStyle=orthogonalEdgeStyle;rounded=0;orthogonalLoop=1;jettySize=auto;html=1;endArrow=none;endFill=0;dashed=1;dashPattern=8 8;" edge="1" parent="1">
          <mxGeometry relative="1" as="geometry">
            <mxPoint x="310" y="220" as="targetPoint" />
            <mxPoint x="280" y="220" as="sourcePoint" />
          </mxGeometry>
        </mxCell>
        <mxCell id="xdKE0fxUzMoHAe-ZSNXu-46" value="Рекурсивный алгоритм нахождения&lt;br&gt;расстояния Дамерау --- Левенштейна:&lt;br&gt;DLR(S1, L1, S2, L2)&lt;br&gt;Вход: строки S1, S2, их длины L1, L2&lt;br&gt;Выход: расстояние Дамерау --- Левенштейна" style="html=1;shape=mxgraph.flowchart.annotation_2;align=left;labelPosition=right;pointerEvents=1;" vertex="1" parent="1">
          <mxGeometry x="310" y="180" width="20" height="80" as="geometry" />
        </mxCell>
        <mxCell id="xdKE0fxUzMoHAe-ZSNXu-47" style="edgeStyle=orthogonalEdgeStyle;rounded=0;orthogonalLoop=1;jettySize=auto;html=1;exitX=0;exitY=0.5;exitDx=0;exitDy=0;exitPerimeter=0;entryX=0.5;entryY=0;entryDx=0;entryDy=0;" edge="1" parent="1" source="xdKE0fxUzMoHAe-ZSNXu-6" target="xdKE0fxUzMoHAe-ZSNXu-48">
          <mxGeometry relative="1" as="geometry">
            <mxPoint x="-138" y="400.0000000000002" as="targetPoint" />
          </mxGeometry>
        </mxCell>
        <mxCell id="xdKE0fxUzMoHAe-ZSNXu-48" value="I = DLR(S1, L1, S2, L2 - 1) + 1&lt;br style=&quot;border-color: var(--border-color);&quot;&gt;D = DLR(S1, L1 - 1, S2, L2) + 1&lt;br style=&quot;border-color: var(--border-color);&quot;&gt;R = DLR(S1, L1 - 1, S2, L2 - 1)" style="html=1;shape=process;whiteSpace=wrap;size=0.14;" vertex="1" parent="1">
          <mxGeometry x="-220" y="400" width="160" height="100" as="geometry" />
        </mxCell>
        <mxCell id="xdKE0fxUzMoHAe-ZSNXu-50" value="T = DLR(S1, L1 - 2, S2, L2 - 2) + 1" style="html=1;shape=process;whiteSpace=wrap;size=0.14;" vertex="1" parent="1">
          <mxGeometry x="-40" y="800" width="160" height="60" as="geometry" />
        </mxCell>
        <mxCell id="xdKE0fxUzMoHAe-ZSNXu-52" value="Да" style="text;html=1;align=center;verticalAlign=middle;resizable=0;points=[];autosize=1;strokeColor=none;fillColor=none;" vertex="1" parent="1">
          <mxGeometry x="280" y="280" width="40" height="30" as="geometry" />
        </mxCell>
        <mxCell id="xdKE0fxUzMoHAe-ZSNXu-53" value="Да" style="text;html=1;align=center;verticalAlign=middle;resizable=0;points=[];autosize=1;strokeColor=none;fillColor=none;" vertex="1" parent="1">
          <mxGeometry x="110" y="340" width="40" height="30" as="geometry" />
        </mxCell>
        <mxCell id="xdKE0fxUzMoHAe-ZSNXu-54" value="Да" style="text;html=1;align=center;verticalAlign=middle;resizable=0;points=[];autosize=1;strokeColor=none;fillColor=none;" vertex="1" parent="1">
          <mxGeometry x="-58" y="530" width="40" height="30" as="geometry" />
        </mxCell>
        <mxCell id="xdKE0fxUzMoHAe-ZSNXu-55" value="Да" style="text;html=1;align=center;verticalAlign=middle;resizable=0;points=[];autosize=1;strokeColor=none;fillColor=none;" vertex="1" parent="1">
          <mxGeometry x="-60" y="740" width="40" height="30" as="geometry" />
        </mxCell>
      </root>
    </mxGraphModel>
  </diagram>
</mxfile>
